<?xml version="1.0" encoding="UTF-8"?><svg id="Layer_10" xmlns="http://www.w3.org/2000/svg" viewBox="0 0 400 400"><defs><style>.cls-1{fill:#00ff85;}.cls-2{fill:none;}.cls-3{fill:#7200d6;}</style></defs><polygon class="cls-2" points="220.07 287.2 253.64 229.05 186.49 229.05 220.07 287.2"/><path class="cls-3" d="M209.44,285.71l108.3-187.58c3.36-5.82-.84-13.09-7.56-13.09H93.58c-6.72,0-10.91,7.27-7.56,13.09l108.3,187.58c3.36,5.82,11.75,5.82,15.11,0Z"/><path class="cls-1" d="M212.9,328.5l54.95-95.17c3.36-5.82-.84-13.09-7.56-13.09h-109.89c-6.72,0-10.91,7.27-7.56,13.09l54.95,95.17c3.36,5.82,11.75,5.82,15.11,0Z"/><path class="cls-1" d="M301.28,168.14l54.95-95.17c3.36-5.82-.84-13.09-7.56-13.09h-109.89c-6.72,0-10.91,7.27-7.56,13.09l54.95,95.17c3.36,5.82,11.75,5.82,15.11,0Z"/><path class="cls-1" d="M123.2,168.14l54.95-95.17c3.36-5.82-.84-13.09-7.56-13.09H60.7c-6.72,0-10.91,7.27-7.56,13.09l54.95,95.17c3.36,5.82,11.75,5.82,15.11,0Z"/></svg>