<svg width="25" height="20" viewBox="0 0 25 20" fill="none" xmlns="http://www.w3.org/2000/svg">
<path d="M3.64645 4.7166C3.66115 4.57052 3.64146 4.42303 3.58895 4.28592C3.53644 4.14881 3.45257 4.02589 3.34405 3.927L1.10245 1.2066V0.799805H8.06005L13.4384 12.6858L18.1665 0.799805H24.8V1.2066L22.8836 3.0558C22.8024 3.1185 22.7398 3.20208 22.7024 3.29761C22.665 3.39314 22.6542 3.49704 22.6712 3.5982V17.199C22.6542 17.3002 22.665 17.4041 22.7024 17.4996C22.7398 17.5951 22.8024 17.6787 22.8836 17.7414L24.7556 19.5918V19.9998H15.3428V19.593L17.282 17.697C17.4728 17.505 17.4728 17.4486 17.4728 17.1558V6.16141L12.0824 19.9542H11.3552L5.07925 6.16141V15.4062C5.02765 15.7938 5.15605 16.1862 5.42725 16.467L7.94845 19.5486V19.9542H0.800049V19.5486L3.32005 16.467C3.45338 16.3279 3.55234 16.1595 3.60901 15.9753C3.66569 15.7911 3.67851 15.5962 3.64645 15.4062V4.7166Z" fill="#00FC82"/>
</svg>
