<svg width="25" height="20" viewBox="0 0 25 20" fill="none" xmlns="http://www.w3.org/2000/svg">
<path d="M25 2.35294C24.0798 2.76471 23.088 3.03529 22.0602 3.16471C23.1119 2.54118 23.9245 1.55294 24.3069 0.364706C23.315 0.952941 22.2156 1.36471 21.0564 1.6C20.1123 0.588235 18.7859 0 17.2801 0C14.4718 0 12.1773 2.25882 12.1773 5.04706C12.1773 5.44706 12.2251 5.83529 12.3088 6.2C8.05449 5.98824 4.26625 3.97647 1.74474 0.929412C1.30258 1.67059 1.05163 2.54118 1.05163 3.45882C1.05163 5.21176 1.9479 6.76471 3.33413 7.64706C2.48566 7.64706 1.69694 7.41177 1.00382 7.05882V7.09412C1.00382 9.54118 2.77247 11.5882 5.11472 12.0471C4.36272 12.2497 3.57325 12.2778 2.80832 12.1294C3.1329 13.1323 3.76857 14.0099 4.62598 14.6387C5.48339 15.2676 6.51942 15.6161 7.58843 15.6353C5.77633 17.0476 3.53011 17.811 1.21893 17.8C0.81262 17.8 0.40631 17.7765 0 17.7294C2.27055 19.1647 4.97132 20 7.86329 20C17.2801 20 22.4546 12.3059 22.4546 5.63529C22.4546 5.41177 22.4546 5.2 22.4426 4.97647C23.4465 4.27059 24.3069 3.37647 25 2.35294Z" fill="#7A00F4"/>
</svg>
