<svg width="22" height="22" viewBox="0 0 22 22" fill="none" xmlns="http://www.w3.org/2000/svg">
<path d="M11 0C8.08262 0 5.28473 1.15893 3.22183 3.22183C1.15893 5.28473 0 8.08262 0 11C0 13.9174 1.15893 16.7153 3.22183 18.7782C5.28473 20.8411 8.08262 22 11 22C13.9174 22 16.7153 20.8411 18.7782 18.7782C20.8411 16.7153 22 13.9174 22 11C22 8.08262 20.8411 5.28473 18.7782 3.22183C16.7153 1.15893 13.9174 0 11 0V0ZM1.35667 11.8311H4.42444C4.47333 12.9433 4.62856 14.0482 4.88889 15.1311H2.24889C1.75658 14.0933 1.45439 12.9756 1.35667 11.8311ZM11.8311 5.23111V1.45444C13.0089 1.90205 13.9768 2.77398 14.5444 3.89889C14.795 4.323 15.0162 4.76422 15.2044 5.21889L11.8311 5.23111ZM15.7667 6.88111C16.0502 7.96033 16.2189 9.06644 16.2678 10.1811H11.8311V6.88111H15.7667ZM10.1689 1.45444V5.23111H6.79556C6.9841 4.77607 7.20465 4.33497 7.45556 3.91111C8.02079 2.7816 8.98894 1.90503 10.1689 1.45444ZM10.1689 6.88111V10.1811H5.74444C5.79333 9.06644 5.962 7.96033 6.24556 6.88111H10.1689ZM4.42444 10.1689H1.35667C1.45439 9.02439 1.75658 7.9067 2.24889 6.86889H4.88889C4.62806 7.95134 4.47252 9.05649 4.42444 10.1689ZM5.74444 11.8311H10.1689V15.1311H6.24556C5.96204 14.052 5.79406 12.9458 5.74444 11.8311ZM10.1811 16.72V20.4967C9.00328 20.0491 8.03543 19.1771 7.46778 18.0522C7.21687 17.6284 6.99632 17.1873 6.80778 16.7322L10.1811 16.72ZM11.8311 20.4967V16.7811H15.2044C15.0159 17.2361 14.7953 17.6773 14.5444 18.1011C13.9768 19.226 13.0089 20.0979 11.8311 20.5456V20.4967ZM11.8311 15.07V11.77H16.2556C16.2059 12.8847 16.038 13.9909 15.7544 15.07H11.8311ZM17.5878 11.77H20.6556C20.5578 12.9145 20.2556 14.0322 19.7633 15.07H17.1111C17.3678 14.0067 17.523 12.9226 17.5756 11.8311L17.5878 11.77ZM17.5878 10.12C17.5318 9.02771 17.3722 7.94321 17.1111 6.88111H19.7511C20.2437 7.92 20.5456 9.03711 20.6433 10.1811L17.5878 10.12ZM18.81 5.23111H16.6222C16.2264 4.11926 15.6526 3.07905 14.9233 2.15111C16.4442 2.83382 17.7653 3.89406 18.7611 5.23111H18.81ZM7.07667 2.15111C6.34739 3.07905 5.77363 4.11926 5.37778 5.23111H3.23889C4.23466 3.89406 5.55576 2.83382 7.07667 2.15111ZM3.22667 16.8178H5.37778C5.77363 17.9296 6.34739 18.9698 7.07667 19.8978C5.55155 19.2048 4.23005 18.1316 3.23889 16.7811L3.22667 16.8178ZM14.9111 19.8978C15.6404 18.9698 16.2141 17.9296 16.61 16.8178H18.7611C17.7593 18.1369 16.4387 19.1799 14.9233 19.8489L14.9111 19.8978Z" fill="#00FC82"/>
</svg>
